<mxfile host="app.diagrams.net" modified="2024-05-02T15:22:38.869Z" agent="Mozilla/5.0 (Windows NT 10.0; Win64; x64) AppleWebKit/537.36 (KHTML, like Gecko) Chrome/124.0.0.0 Safari/537.36" etag="whXB7ujpuRJM_gaGWft3" version="24.2.5" type="device">
  <diagram name="Page-1" id="VQEroa8R-jXUZS5c-SRS">
    <mxGraphModel dx="989" dy="538" grid="1" gridSize="10" guides="1" tooltips="1" connect="1" arrows="1" fold="1" page="1" pageScale="1" pageWidth="850" pageHeight="1100" math="0" shadow="0">
      <root>
        <mxCell id="0" />
        <mxCell id="1" parent="0" />
        <mxCell id="ox-4Tsm_ZWil1ZC0ssvw-59" value="" style="edgeStyle=orthogonalEdgeStyle;rounded=0;orthogonalLoop=1;jettySize=auto;html=1;" edge="1" parent="1" source="ox-4Tsm_ZWil1ZC0ssvw-1" target="ox-4Tsm_ZWil1ZC0ssvw-56">
          <mxGeometry relative="1" as="geometry" />
        </mxCell>
        <mxCell id="ox-4Tsm_ZWil1ZC0ssvw-1" value="" style="rounded=1;whiteSpace=wrap;html=1;" vertex="1" parent="1">
          <mxGeometry x="40" y="160" width="120" height="160" as="geometry" />
        </mxCell>
        <mxCell id="ox-4Tsm_ZWil1ZC0ssvw-2" value="" style="ellipse;whiteSpace=wrap;html=1;aspect=fixed;fillColor=#ffee38;" vertex="1" parent="1">
          <mxGeometry x="60" y="180" width="10" height="10" as="geometry" />
        </mxCell>
        <mxCell id="ox-4Tsm_ZWil1ZC0ssvw-3" value="" style="ellipse;whiteSpace=wrap;html=1;aspect=fixed;fillColor=#ffffff;" vertex="1" parent="1">
          <mxGeometry x="50" y="200" width="10" height="10" as="geometry" />
        </mxCell>
        <mxCell id="ox-4Tsm_ZWil1ZC0ssvw-4" value="" style="ellipse;whiteSpace=wrap;html=1;aspect=fixed;fillColor=#ffee38;" vertex="1" parent="1">
          <mxGeometry x="70" y="200" width="10" height="10" as="geometry" />
        </mxCell>
        <mxCell id="ox-4Tsm_ZWil1ZC0ssvw-5" value="" style="ellipse;whiteSpace=wrap;html=1;aspect=fixed;fillColor=#b0b0b0;" vertex="1" parent="1">
          <mxGeometry x="100" y="180" width="10" height="10" as="geometry" />
        </mxCell>
        <mxCell id="ox-4Tsm_ZWil1ZC0ssvw-6" value="" style="ellipse;whiteSpace=wrap;html=1;aspect=fixed;fillColor=#000000;" vertex="1" parent="1">
          <mxGeometry x="120" y="200" width="10" height="10" as="geometry" />
        </mxCell>
        <mxCell id="ox-4Tsm_ZWil1ZC0ssvw-7" value="" style="ellipse;whiteSpace=wrap;html=1;aspect=fixed;fillColor=#b0b0b0;" vertex="1" parent="1">
          <mxGeometry x="100" y="210" width="10" height="10" as="geometry" />
        </mxCell>
        <mxCell id="ox-4Tsm_ZWil1ZC0ssvw-8" value="" style="ellipse;whiteSpace=wrap;html=1;aspect=fixed;fillColor=#f00000;" vertex="1" parent="1">
          <mxGeometry x="120" y="170" width="10" height="10" as="geometry" />
        </mxCell>
        <mxCell id="ox-4Tsm_ZWil1ZC0ssvw-9" value="" style="ellipse;whiteSpace=wrap;html=1;aspect=fixed;fillColor=#f00000;" vertex="1" parent="1">
          <mxGeometry x="140" y="180" width="10" height="10" as="geometry" />
        </mxCell>
        <mxCell id="ox-4Tsm_ZWil1ZC0ssvw-10" value="" style="ellipse;whiteSpace=wrap;html=1;aspect=fixed;fillColor=#f00000;" vertex="1" parent="1">
          <mxGeometry x="140" y="200" width="10" height="10" as="geometry" />
        </mxCell>
        <mxCell id="ox-4Tsm_ZWil1ZC0ssvw-11" value="" style="ellipse;whiteSpace=wrap;html=1;aspect=fixed;" vertex="1" parent="1">
          <mxGeometry x="80" y="230" width="10" height="10" as="geometry" />
        </mxCell>
        <mxCell id="ox-4Tsm_ZWil1ZC0ssvw-12" value="" style="ellipse;whiteSpace=wrap;html=1;aspect=fixed;" vertex="1" parent="1">
          <mxGeometry x="120" y="220" width="10" height="10" as="geometry" />
        </mxCell>
        <mxCell id="ox-4Tsm_ZWil1ZC0ssvw-13" value="" style="ellipse;whiteSpace=wrap;html=1;aspect=fixed;fillColor=#00aaff;" vertex="1" parent="1">
          <mxGeometry x="100" y="235" width="10" height="10" as="geometry" />
        </mxCell>
        <mxCell id="ox-4Tsm_ZWil1ZC0ssvw-14" value="" style="ellipse;whiteSpace=wrap;html=1;aspect=fixed;fillColor=#2bff00;" vertex="1" parent="1">
          <mxGeometry x="70" y="250" width="10" height="10" as="geometry" />
        </mxCell>
        <mxCell id="ox-4Tsm_ZWil1ZC0ssvw-15" value="" style="ellipse;whiteSpace=wrap;html=1;aspect=fixed;fillColor=#ffee38;" vertex="1" parent="1">
          <mxGeometry x="80" y="170" width="10" height="10" as="geometry" />
        </mxCell>
        <mxCell id="ox-4Tsm_ZWil1ZC0ssvw-19" value="" style="ellipse;whiteSpace=wrap;html=1;aspect=fixed;fillColor=#b0b0b0;" vertex="1" parent="1">
          <mxGeometry x="50" y="240" width="10" height="10" as="geometry" />
        </mxCell>
        <mxCell id="ox-4Tsm_ZWil1ZC0ssvw-20" value="" style="ellipse;whiteSpace=wrap;html=1;aspect=fixed;fillColor=#00aaff;" vertex="1" parent="1">
          <mxGeometry x="90" y="260" width="10" height="10" as="geometry" />
        </mxCell>
        <mxCell id="ox-4Tsm_ZWil1ZC0ssvw-21" value="" style="ellipse;whiteSpace=wrap;html=1;aspect=fixed;fillColor=#2bff00;" vertex="1" parent="1">
          <mxGeometry x="120" y="250" width="10" height="10" as="geometry" />
        </mxCell>
        <mxCell id="ox-4Tsm_ZWil1ZC0ssvw-22" value="" style="ellipse;whiteSpace=wrap;html=1;aspect=fixed;fillColor=#00aaff;" vertex="1" parent="1">
          <mxGeometry x="140" y="240" width="10" height="10" as="geometry" />
        </mxCell>
        <mxCell id="ox-4Tsm_ZWil1ZC0ssvw-23" value="" style="ellipse;whiteSpace=wrap;html=1;aspect=fixed;fillColor=#ffffff;" vertex="1" parent="1">
          <mxGeometry x="80" y="190" width="10" height="10" as="geometry" />
        </mxCell>
        <mxCell id="ox-4Tsm_ZWil1ZC0ssvw-25" value="" style="endArrow=none;html=1;rounded=0;exitX=0.955;exitY=0.307;exitDx=0;exitDy=0;entryX=0.058;entryY=0.709;entryDx=0;entryDy=0;entryPerimeter=0;exitPerimeter=0;" edge="1" parent="1" source="ox-4Tsm_ZWil1ZC0ssvw-2" target="ox-4Tsm_ZWil1ZC0ssvw-15">
          <mxGeometry width="50" height="50" relative="1" as="geometry">
            <mxPoint x="65" y="230" as="sourcePoint" />
            <mxPoint x="85" y="175" as="targetPoint" />
          </mxGeometry>
        </mxCell>
        <mxCell id="ox-4Tsm_ZWil1ZC0ssvw-26" value="" style="endArrow=none;html=1;rounded=0;entryX=0.721;entryY=0.971;entryDx=0;entryDy=0;entryPerimeter=0;exitX=0.254;exitY=0.074;exitDx=0;exitDy=0;exitPerimeter=0;" edge="1" parent="1" source="ox-4Tsm_ZWil1ZC0ssvw-4" target="ox-4Tsm_ZWil1ZC0ssvw-2">
          <mxGeometry width="50" height="50" relative="1" as="geometry">
            <mxPoint x="75" y="240" as="sourcePoint" />
            <mxPoint x="95" y="220" as="targetPoint" />
          </mxGeometry>
        </mxCell>
        <mxCell id="ox-4Tsm_ZWil1ZC0ssvw-27" value="" style="endArrow=none;html=1;rounded=0;entryX=0;entryY=1;entryDx=0;entryDy=0;exitX=1;exitY=0;exitDx=0;exitDy=0;" edge="1" parent="1" source="ox-4Tsm_ZWil1ZC0ssvw-4" target="ox-4Tsm_ZWil1ZC0ssvw-23">
          <mxGeometry width="50" height="50" relative="1" as="geometry">
            <mxPoint x="85" y="250" as="sourcePoint" />
            <mxPoint x="105" y="230" as="targetPoint" />
          </mxGeometry>
        </mxCell>
        <mxCell id="ox-4Tsm_ZWil1ZC0ssvw-28" value="" style="endArrow=none;html=1;rounded=0;entryX=0.5;entryY=1;entryDx=0;entryDy=0;exitX=0.5;exitY=0;exitDx=0;exitDy=0;" edge="1" parent="1" source="ox-4Tsm_ZWil1ZC0ssvw-23" target="ox-4Tsm_ZWil1ZC0ssvw-15">
          <mxGeometry width="50" height="50" relative="1" as="geometry">
            <mxPoint x="95" y="260" as="sourcePoint" />
            <mxPoint x="115" y="240" as="targetPoint" />
          </mxGeometry>
        </mxCell>
        <mxCell id="ox-4Tsm_ZWil1ZC0ssvw-30" value="" style="endArrow=none;html=1;rounded=0;entryX=1;entryY=0.5;entryDx=0;entryDy=0;exitX=0;exitY=0.5;exitDx=0;exitDy=0;" edge="1" parent="1" source="ox-4Tsm_ZWil1ZC0ssvw-4" target="ox-4Tsm_ZWil1ZC0ssvw-3">
          <mxGeometry width="50" height="50" relative="1" as="geometry">
            <mxPoint x="115" y="280" as="sourcePoint" />
            <mxPoint x="135" y="260" as="targetPoint" />
          </mxGeometry>
        </mxCell>
        <mxCell id="ox-4Tsm_ZWil1ZC0ssvw-31" value="" style="endArrow=none;html=1;rounded=0;entryX=0.961;entryY=0.758;entryDx=0;entryDy=0;exitX=0.034;exitY=0.306;exitDx=0;exitDy=0;entryPerimeter=0;exitPerimeter=0;" edge="1" parent="1" source="ox-4Tsm_ZWil1ZC0ssvw-5" target="ox-4Tsm_ZWil1ZC0ssvw-15">
          <mxGeometry width="50" height="50" relative="1" as="geometry">
            <mxPoint x="125" y="290" as="sourcePoint" />
            <mxPoint x="145" y="270" as="targetPoint" />
          </mxGeometry>
        </mxCell>
        <mxCell id="ox-4Tsm_ZWil1ZC0ssvw-32" value="" style="endArrow=none;html=1;rounded=0;entryX=0.961;entryY=0.328;entryDx=0;entryDy=0;exitX=0.056;exitY=0.736;exitDx=0;exitDy=0;entryPerimeter=0;exitPerimeter=0;" edge="1" parent="1" source="ox-4Tsm_ZWil1ZC0ssvw-8" target="ox-4Tsm_ZWil1ZC0ssvw-5">
          <mxGeometry width="50" height="50" relative="1" as="geometry">
            <mxPoint x="135" y="300" as="sourcePoint" />
            <mxPoint x="155" y="280" as="targetPoint" />
          </mxGeometry>
        </mxCell>
        <mxCell id="ox-4Tsm_ZWil1ZC0ssvw-33" value="" style="endArrow=none;html=1;rounded=0;entryX=0.95;entryY=0.669;entryDx=0;entryDy=0;exitX=0.034;exitY=0.261;exitDx=0;exitDy=0;entryPerimeter=0;exitPerimeter=0;" edge="1" parent="1" source="ox-4Tsm_ZWil1ZC0ssvw-9" target="ox-4Tsm_ZWil1ZC0ssvw-8">
          <mxGeometry width="50" height="50" relative="1" as="geometry">
            <mxPoint x="145" y="310" as="sourcePoint" />
            <mxPoint x="165" y="290" as="targetPoint" />
          </mxGeometry>
        </mxCell>
        <mxCell id="ox-4Tsm_ZWil1ZC0ssvw-34" value="" style="endArrow=none;html=1;rounded=0;entryX=0.5;entryY=1;entryDx=0;entryDy=0;" edge="1" parent="1" target="ox-4Tsm_ZWil1ZC0ssvw-9">
          <mxGeometry width="50" height="50" relative="1" as="geometry">
            <mxPoint x="145" y="200" as="sourcePoint" />
            <mxPoint x="175" y="300" as="targetPoint" />
          </mxGeometry>
        </mxCell>
        <mxCell id="ox-4Tsm_ZWil1ZC0ssvw-35" value="" style="endArrow=none;html=1;rounded=0;entryX=0.5;entryY=1;entryDx=0;entryDy=0;exitX=0.5;exitY=0;exitDx=0;exitDy=0;" edge="1" parent="1" source="ox-4Tsm_ZWil1ZC0ssvw-6" target="ox-4Tsm_ZWil1ZC0ssvw-8">
          <mxGeometry width="50" height="50" relative="1" as="geometry">
            <mxPoint x="165" y="330" as="sourcePoint" />
            <mxPoint x="185" y="310" as="targetPoint" />
          </mxGeometry>
        </mxCell>
        <mxCell id="ox-4Tsm_ZWil1ZC0ssvw-36" value="" style="endArrow=none;html=1;rounded=0;entryX=0;entryY=1;entryDx=0;entryDy=0;exitX=1;exitY=0;exitDx=0;exitDy=0;" edge="1" parent="1" source="ox-4Tsm_ZWil1ZC0ssvw-6" target="ox-4Tsm_ZWil1ZC0ssvw-9">
          <mxGeometry width="50" height="50" relative="1" as="geometry">
            <mxPoint x="175" y="340" as="sourcePoint" />
            <mxPoint x="195" y="320" as="targetPoint" />
          </mxGeometry>
        </mxCell>
        <mxCell id="ox-4Tsm_ZWil1ZC0ssvw-37" value="" style="endArrow=none;html=1;rounded=0;entryX=0;entryY=0.5;entryDx=0;entryDy=0;exitX=1;exitY=0.5;exitDx=0;exitDy=0;" edge="1" parent="1" source="ox-4Tsm_ZWil1ZC0ssvw-6" target="ox-4Tsm_ZWil1ZC0ssvw-10">
          <mxGeometry width="50" height="50" relative="1" as="geometry">
            <mxPoint x="185" y="350" as="sourcePoint" />
            <mxPoint x="205" y="330" as="targetPoint" />
          </mxGeometry>
        </mxCell>
        <mxCell id="ox-4Tsm_ZWil1ZC0ssvw-38" value="" style="endArrow=none;html=1;rounded=0;entryX=0.212;entryY=0.942;entryDx=0;entryDy=0;exitX=0.654;exitY=0.015;exitDx=0;exitDy=0;exitPerimeter=0;entryPerimeter=0;" edge="1" parent="1" source="ox-4Tsm_ZWil1ZC0ssvw-3" target="ox-4Tsm_ZWil1ZC0ssvw-2">
          <mxGeometry width="50" height="50" relative="1" as="geometry">
            <mxPoint x="105" y="270" as="sourcePoint" />
            <mxPoint x="125" y="250" as="targetPoint" />
          </mxGeometry>
        </mxCell>
        <mxCell id="ox-4Tsm_ZWil1ZC0ssvw-39" value="" style="endArrow=none;html=1;rounded=0;entryX=1;entryY=1;entryDx=0;entryDy=0;exitX=0;exitY=0;exitDx=0;exitDy=0;" edge="1" parent="1" source="ox-4Tsm_ZWil1ZC0ssvw-7" target="ox-4Tsm_ZWil1ZC0ssvw-23">
          <mxGeometry width="50" height="50" relative="1" as="geometry">
            <mxPoint x="115" y="280" as="sourcePoint" />
            <mxPoint x="135" y="260" as="targetPoint" />
          </mxGeometry>
        </mxCell>
        <mxCell id="ox-4Tsm_ZWil1ZC0ssvw-40" value="" style="endArrow=none;html=1;rounded=0;entryX=0.011;entryY=0.674;entryDx=0;entryDy=0;exitX=0.961;exitY=0.3;exitDx=0;exitDy=0;entryPerimeter=0;exitPerimeter=0;" edge="1" parent="1" source="ox-4Tsm_ZWil1ZC0ssvw-7" target="ox-4Tsm_ZWil1ZC0ssvw-6">
          <mxGeometry width="50" height="50" relative="1" as="geometry">
            <mxPoint x="125" y="290" as="sourcePoint" />
            <mxPoint x="145" y="270" as="targetPoint" />
          </mxGeometry>
        </mxCell>
        <mxCell id="ox-4Tsm_ZWil1ZC0ssvw-41" value="" style="endArrow=none;html=1;rounded=0;entryX=0.961;entryY=0.68;entryDx=0;entryDy=0;exitX=0;exitY=0.272;exitDx=0;exitDy=0;entryPerimeter=0;exitPerimeter=0;" edge="1" parent="1" source="ox-4Tsm_ZWil1ZC0ssvw-12" target="ox-4Tsm_ZWil1ZC0ssvw-7">
          <mxGeometry width="50" height="50" relative="1" as="geometry">
            <mxPoint x="135" y="300" as="sourcePoint" />
            <mxPoint x="155" y="280" as="targetPoint" />
          </mxGeometry>
        </mxCell>
        <mxCell id="ox-4Tsm_ZWil1ZC0ssvw-42" value="" style="endArrow=none;html=1;rounded=0;entryX=1;entryY=1;entryDx=0;entryDy=0;exitX=0;exitY=0;exitDx=0;exitDy=0;" edge="1" parent="1" source="ox-4Tsm_ZWil1ZC0ssvw-21" target="ox-4Tsm_ZWil1ZC0ssvw-13">
          <mxGeometry width="50" height="50" relative="1" as="geometry">
            <mxPoint x="145" y="310" as="sourcePoint" />
            <mxPoint x="165" y="290" as="targetPoint" />
          </mxGeometry>
        </mxCell>
        <mxCell id="ox-4Tsm_ZWil1ZC0ssvw-43" value="" style="endArrow=none;html=1;rounded=0;entryX=1;entryY=1;entryDx=0;entryDy=0;exitX=0;exitY=0;exitDx=0;exitDy=0;" edge="1" parent="1" source="ox-4Tsm_ZWil1ZC0ssvw-22" target="ox-4Tsm_ZWil1ZC0ssvw-12">
          <mxGeometry width="50" height="50" relative="1" as="geometry">
            <mxPoint x="155" y="320" as="sourcePoint" />
            <mxPoint x="175" y="300" as="targetPoint" />
          </mxGeometry>
        </mxCell>
        <mxCell id="ox-4Tsm_ZWil1ZC0ssvw-44" value="" style="endArrow=none;html=1;rounded=0;entryX=0;entryY=1;entryDx=0;entryDy=0;exitX=1;exitY=0.5;exitDx=0;exitDy=0;" edge="1" parent="1" source="ox-4Tsm_ZWil1ZC0ssvw-21" target="ox-4Tsm_ZWil1ZC0ssvw-22">
          <mxGeometry width="50" height="50" relative="1" as="geometry">
            <mxPoint x="165" y="330" as="sourcePoint" />
            <mxPoint x="185" y="310" as="targetPoint" />
          </mxGeometry>
        </mxCell>
        <mxCell id="ox-4Tsm_ZWil1ZC0ssvw-45" value="" style="endArrow=none;html=1;rounded=0;entryX=0;entryY=1;entryDx=0;entryDy=0;exitX=1;exitY=0.5;exitDx=0;exitDy=0;" edge="1" parent="1" source="ox-4Tsm_ZWil1ZC0ssvw-20" target="ox-4Tsm_ZWil1ZC0ssvw-21">
          <mxGeometry width="50" height="50" relative="1" as="geometry">
            <mxPoint x="175" y="340" as="sourcePoint" />
            <mxPoint x="195" y="320" as="targetPoint" />
          </mxGeometry>
        </mxCell>
        <mxCell id="ox-4Tsm_ZWil1ZC0ssvw-46" value="" style="endArrow=none;html=1;rounded=0;entryX=1;entryY=1;entryDx=0;entryDy=0;exitX=0.033;exitY=0.328;exitDx=0;exitDy=0;exitPerimeter=0;" edge="1" parent="1" source="ox-4Tsm_ZWil1ZC0ssvw-20" target="ox-4Tsm_ZWil1ZC0ssvw-14">
          <mxGeometry width="50" height="50" relative="1" as="geometry">
            <mxPoint x="185" y="350" as="sourcePoint" />
            <mxPoint x="205" y="330" as="targetPoint" />
          </mxGeometry>
        </mxCell>
        <mxCell id="ox-4Tsm_ZWil1ZC0ssvw-47" value="" style="endArrow=none;html=1;rounded=0;entryX=0.933;entryY=0.797;entryDx=0;entryDy=0;entryPerimeter=0;exitX=0.017;exitY=0.3;exitDx=0;exitDy=0;exitPerimeter=0;" edge="1" parent="1" source="ox-4Tsm_ZWil1ZC0ssvw-14" target="ox-4Tsm_ZWil1ZC0ssvw-19">
          <mxGeometry width="50" height="50" relative="1" as="geometry">
            <mxPoint x="195" y="360" as="sourcePoint" />
            <mxPoint x="215" y="340" as="targetPoint" />
          </mxGeometry>
        </mxCell>
        <mxCell id="ox-4Tsm_ZWil1ZC0ssvw-48" value="" style="endArrow=none;html=1;rounded=0;entryX=0.011;entryY=0.635;entryDx=0;entryDy=0;exitX=0.955;exitY=0.35;exitDx=0;exitDy=0;entryPerimeter=0;exitPerimeter=0;" edge="1" parent="1" source="ox-4Tsm_ZWil1ZC0ssvw-19" target="ox-4Tsm_ZWil1ZC0ssvw-11">
          <mxGeometry width="50" height="50" relative="1" as="geometry">
            <mxPoint x="205" y="370" as="sourcePoint" />
            <mxPoint x="225" y="350" as="targetPoint" />
          </mxGeometry>
        </mxCell>
        <mxCell id="ox-4Tsm_ZWil1ZC0ssvw-49" value="" style="endArrow=none;html=1;rounded=0;entryX=0;entryY=1;entryDx=0;entryDy=0;exitX=1;exitY=0;exitDx=0;exitDy=0;" edge="1" parent="1" source="ox-4Tsm_ZWil1ZC0ssvw-11" target="ox-4Tsm_ZWil1ZC0ssvw-7">
          <mxGeometry width="50" height="50" relative="1" as="geometry">
            <mxPoint x="215" y="380" as="sourcePoint" />
            <mxPoint x="235" y="360" as="targetPoint" />
          </mxGeometry>
        </mxCell>
        <mxCell id="ox-4Tsm_ZWil1ZC0ssvw-50" value="" style="endArrow=none;html=1;rounded=0;entryX=0.965;entryY=0.642;entryDx=0;entryDy=0;exitX=-0.035;exitY=0.352;exitDx=0;exitDy=0;entryPerimeter=0;exitPerimeter=0;" edge="1" parent="1" source="ox-4Tsm_ZWil1ZC0ssvw-13" target="ox-4Tsm_ZWil1ZC0ssvw-11">
          <mxGeometry width="50" height="50" relative="1" as="geometry">
            <mxPoint x="225" y="390" as="sourcePoint" />
            <mxPoint x="245" y="370" as="targetPoint" />
          </mxGeometry>
        </mxCell>
        <mxCell id="ox-4Tsm_ZWil1ZC0ssvw-51" value="" style="endArrow=none;html=1;rounded=0;entryX=0.339;entryY=1.022;entryDx=0;entryDy=0;exitX=0.7;exitY=0.05;exitDx=0;exitDy=0;entryPerimeter=0;exitPerimeter=0;" edge="1" parent="1" source="ox-4Tsm_ZWil1ZC0ssvw-20" target="ox-4Tsm_ZWil1ZC0ssvw-13">
          <mxGeometry width="50" height="50" relative="1" as="geometry">
            <mxPoint x="235" y="400" as="sourcePoint" />
            <mxPoint x="255" y="380" as="targetPoint" />
          </mxGeometry>
        </mxCell>
        <mxCell id="ox-4Tsm_ZWil1ZC0ssvw-52" value="" style="endArrow=none;html=1;rounded=0;entryX=0.067;entryY=0.73;entryDx=0;entryDy=0;exitX=0.939;exitY=0.202;exitDx=0;exitDy=0;entryPerimeter=0;exitPerimeter=0;" edge="1" parent="1" source="ox-4Tsm_ZWil1ZC0ssvw-13" target="ox-4Tsm_ZWil1ZC0ssvw-12">
          <mxGeometry width="50" height="50" relative="1" as="geometry">
            <mxPoint x="245" y="410" as="sourcePoint" />
            <mxPoint x="265" y="390" as="targetPoint" />
          </mxGeometry>
        </mxCell>
        <mxCell id="ox-4Tsm_ZWil1ZC0ssvw-53" value="" style="endArrow=none;html=1;rounded=0;entryX=0.268;entryY=0.982;entryDx=0;entryDy=0;exitX=0.709;exitY=0.009;exitDx=0;exitDy=0;entryPerimeter=0;exitPerimeter=0;" edge="1" parent="1" source="ox-4Tsm_ZWil1ZC0ssvw-14" target="ox-4Tsm_ZWil1ZC0ssvw-11">
          <mxGeometry width="50" height="50" relative="1" as="geometry">
            <mxPoint x="255" y="420" as="sourcePoint" />
            <mxPoint x="275" y="400" as="targetPoint" />
          </mxGeometry>
        </mxCell>
        <mxCell id="ox-4Tsm_ZWil1ZC0ssvw-54" value="&lt;b style=&quot;font-size: 13px;&quot;&gt;INPUT&lt;/b&gt;&lt;div style=&quot;&quot;&gt;&lt;b style=&quot;&quot;&gt;&lt;font style=&quot;font-size: 9px;&quot;&gt;Nodes, Edges, Labels&lt;/font&gt;&lt;/b&gt;&lt;/div&gt;" style="text;html=1;align=center;verticalAlign=middle;resizable=0;points=[];autosize=1;strokeColor=none;fillColor=none;" vertex="1" parent="1">
          <mxGeometry x="40" y="270" width="120" height="40" as="geometry" />
        </mxCell>
        <mxCell id="ox-4Tsm_ZWil1ZC0ssvw-55" value="" style="shape=trapezoid;perimeter=trapezoidPerimeter;whiteSpace=wrap;html=1;fixedSize=1;rotation=90;" vertex="1" parent="1">
          <mxGeometry x="185" y="220" width="100" height="40" as="geometry" />
        </mxCell>
        <mxCell id="ox-4Tsm_ZWil1ZC0ssvw-61" value="" style="edgeStyle=orthogonalEdgeStyle;rounded=0;orthogonalLoop=1;jettySize=auto;html=1;" edge="1" parent="1" source="ox-4Tsm_ZWil1ZC0ssvw-56" target="ox-4Tsm_ZWil1ZC0ssvw-60">
          <mxGeometry relative="1" as="geometry" />
        </mxCell>
        <mxCell id="ox-4Tsm_ZWil1ZC0ssvw-56" value="&lt;b&gt;GNN&lt;/b&gt;" style="text;html=1;align=center;verticalAlign=middle;resizable=0;points=[];autosize=1;strokeColor=none;fillColor=none;" vertex="1" parent="1">
          <mxGeometry x="210" y="225" width="50" height="30" as="geometry" />
        </mxCell>
        <mxCell id="ox-4Tsm_ZWil1ZC0ssvw-58" value="&lt;font face=&quot;Verdana&quot; style=&quot;font-size: 11px;&quot;&gt;Captures task-specific&amp;nbsp;&lt;/font&gt;&lt;div style=&quot;font-size: 11px;&quot;&gt;&lt;font style=&quot;font-size: 11px;&quot;&gt;&lt;font face=&quot;Verdana&quot; style=&quot;font-size: 11px;&quot;&gt;information and&lt;/font&gt;&lt;span style=&quot;font-family: Verdana; background-color: initial;&quot;&gt;&amp;nbsp;features&lt;/span&gt;&lt;/font&gt;&lt;/div&gt;" style="text;html=1;align=center;verticalAlign=middle;resizable=0;points=[];autosize=1;strokeColor=none;fillColor=none;" vertex="1" parent="1">
          <mxGeometry x="160" y="290" width="160" height="40" as="geometry" />
        </mxCell>
        <mxCell id="ox-4Tsm_ZWil1ZC0ssvw-65" value="" style="edgeStyle=orthogonalEdgeStyle;rounded=0;orthogonalLoop=1;jettySize=auto;html=1;" edge="1" parent="1" source="ox-4Tsm_ZWil1ZC0ssvw-60" target="ox-4Tsm_ZWil1ZC0ssvw-64">
          <mxGeometry relative="1" as="geometry" />
        </mxCell>
        <mxCell id="ox-4Tsm_ZWil1ZC0ssvw-74" style="edgeStyle=orthogonalEdgeStyle;rounded=0;orthogonalLoop=1;jettySize=auto;html=1;exitX=0.5;exitY=0;exitDx=0;exitDy=0;entryX=0.5;entryY=1;entryDx=0;entryDy=0;dashed=1;" edge="1" parent="1" source="ox-4Tsm_ZWil1ZC0ssvw-60" target="ox-4Tsm_ZWil1ZC0ssvw-72">
          <mxGeometry relative="1" as="geometry" />
        </mxCell>
        <mxCell id="ox-4Tsm_ZWil1ZC0ssvw-60" value="&lt;font size=&quot;1&quot; style=&quot;&quot;&gt;&lt;b style=&quot;&quot;&gt;EMBEDDING SPACE&lt;/b&gt;&lt;/font&gt;&lt;div style=&quot;&quot;&gt;&lt;font style=&quot;font-size: 10px;&quot;&gt;Transform input data to lower-dimensional vector representation.&lt;/font&gt;&lt;/div&gt;" style="rounded=1;whiteSpace=wrap;html=1;" vertex="1" parent="1">
          <mxGeometry x="320" y="195" width="110" height="90" as="geometry" />
        </mxCell>
        <mxCell id="ox-4Tsm_ZWil1ZC0ssvw-62" value="&lt;b style=&quot;font-size: 13px;&quot;&gt;&lt;font style=&quot;font-size: 13px;&quot;&gt;Graph&amp;nbsp;&lt;/font&gt;&lt;/b&gt;&lt;div style=&quot;font-size: 13px;&quot;&gt;&lt;b&gt;&lt;font style=&quot;font-size: 13px;&quot;&gt;Embedder&lt;/font&gt;&lt;/b&gt;&lt;/div&gt;" style="text;html=1;align=center;verticalAlign=middle;resizable=0;points=[];autosize=1;strokeColor=none;fillColor=none;" vertex="1" parent="1">
          <mxGeometry x="190" y="150" width="90" height="40" as="geometry" />
        </mxCell>
        <mxCell id="ox-4Tsm_ZWil1ZC0ssvw-70" style="edgeStyle=orthogonalEdgeStyle;rounded=0;orthogonalLoop=1;jettySize=auto;html=1;exitX=0.5;exitY=1;exitDx=0;exitDy=0;" edge="1" parent="1" source="ox-4Tsm_ZWil1ZC0ssvw-63">
          <mxGeometry relative="1" as="geometry">
            <mxPoint x="375.1379310344828" y="350.2758620689656" as="targetPoint" />
          </mxGeometry>
        </mxCell>
        <mxCell id="ox-4Tsm_ZWil1ZC0ssvw-63" value="&lt;font style=&quot;font-size: 12px;&quot;&gt;Semantic Features&lt;/font&gt;" style="rounded=1;whiteSpace=wrap;html=1;dashed=1;" vertex="1" parent="1">
          <mxGeometry x="345" y="290" width="60" height="60" as="geometry" />
        </mxCell>
        <mxCell id="ox-4Tsm_ZWil1ZC0ssvw-68" value="" style="edgeStyle=orthogonalEdgeStyle;rounded=0;orthogonalLoop=1;jettySize=auto;html=1;" edge="1" parent="1" source="ox-4Tsm_ZWil1ZC0ssvw-64" target="ox-4Tsm_ZWil1ZC0ssvw-67">
          <mxGeometry relative="1" as="geometry" />
        </mxCell>
        <mxCell id="ox-4Tsm_ZWil1ZC0ssvw-64" value="&lt;b&gt;TASK EMBEDDER&lt;/b&gt;&lt;div&gt;&lt;div style=&quot;&quot;&gt;&lt;font style=&quot;font-size: 10px;&quot;&gt;Information aggregation and transformation.&lt;/font&gt;&lt;/div&gt;&lt;/div&gt;" style="rounded=1;whiteSpace=wrap;html=1;" vertex="1" parent="1">
          <mxGeometry x="470" y="210" width="120" height="60" as="geometry" />
        </mxCell>
        <mxCell id="ox-4Tsm_ZWil1ZC0ssvw-66" value="&lt;font style=&quot;font-size: 11px;&quot;&gt;Processes the graph&amp;nbsp;&lt;/font&gt;&lt;div style=&quot;font-size: 11px;&quot;&gt;&lt;font style=&quot;font-size: 11px;&quot;&gt;data by aggregating&lt;/font&gt;&lt;/div&gt;&lt;div style=&quot;font-size: 11px;&quot;&gt;&lt;font style=&quot;font-size: 11px;&quot;&gt;&amp;nbsp;information from a&lt;/font&gt;&lt;/div&gt;&lt;div style=&quot;font-size: 11px;&quot;&gt;&lt;font style=&quot;font-size: 11px;&quot;&gt;&amp;nbsp;node&#39;s neighbors&amp;nbsp;&lt;/font&gt;&lt;/div&gt;&lt;div style=&quot;font-size: 11px;&quot;&gt;&lt;font style=&quot;font-size: 11px;&quot;&gt;and transforms it&lt;/font&gt;&lt;/div&gt;&lt;div style=&quot;font-size: 11px;&quot;&gt;&lt;font style=&quot;font-size: 11px;&quot;&gt;&amp;nbsp;into lower-dimensional&lt;/font&gt;&lt;/div&gt;&lt;div style=&quot;font-size: 11px;&quot;&gt;&lt;font style=&quot;font-size: 11px;&quot;&gt;&amp;nbsp;vector suitable for&amp;nbsp;&lt;/font&gt;&lt;/div&gt;&lt;div style=&quot;font-size: 11px;&quot;&gt;&lt;font style=&quot;font-size: 11px;&quot;&gt;the specific task.&lt;/font&gt;&lt;/div&gt;" style="text;html=1;align=center;verticalAlign=middle;resizable=0;points=[];autosize=1;strokeColor=none;fillColor=none;" vertex="1" parent="1">
          <mxGeometry x="460" y="270" width="140" height="120" as="geometry" />
        </mxCell>
        <mxCell id="ox-4Tsm_ZWil1ZC0ssvw-75" style="edgeStyle=orthogonalEdgeStyle;rounded=0;orthogonalLoop=1;jettySize=auto;html=1;exitX=0.5;exitY=0;exitDx=0;exitDy=0;entryX=0.5;entryY=1;entryDx=0;entryDy=0;dashed=1;" edge="1" parent="1" source="ox-4Tsm_ZWil1ZC0ssvw-67" target="ox-4Tsm_ZWil1ZC0ssvw-73">
          <mxGeometry relative="1" as="geometry" />
        </mxCell>
        <mxCell id="ox-4Tsm_ZWil1ZC0ssvw-67" value="&lt;b&gt;OUTPUT&lt;/b&gt;&lt;div&gt;&lt;b&gt;LAYER&lt;/b&gt;&lt;/div&gt;" style="rounded=1;whiteSpace=wrap;html=1;" vertex="1" parent="1">
          <mxGeometry x="640" y="185" width="90" height="110" as="geometry" />
        </mxCell>
        <mxCell id="ox-4Tsm_ZWil1ZC0ssvw-69" value="&lt;font style=&quot;font-size: 11px;&quot;&gt;Task&amp;nbsp;&lt;/font&gt;&lt;div style=&quot;font-size: 11px;&quot;&gt;&lt;font style=&quot;font-size: 11px;&quot;&gt;Sampling&lt;/font&gt;&lt;/div&gt;" style="text;html=1;align=center;verticalAlign=middle;resizable=0;points=[];autosize=1;strokeColor=none;fillColor=none;" vertex="1" parent="1">
          <mxGeometry x="255" y="203" width="70" height="40" as="geometry" />
        </mxCell>
        <mxCell id="ox-4Tsm_ZWil1ZC0ssvw-71" value="" style="endArrow=classic;html=1;rounded=0;entryX=0.5;entryY=1;entryDx=0;entryDy=0;dashed=1;dashPattern=12 12;" edge="1" parent="1" target="ox-4Tsm_ZWil1ZC0ssvw-63">
          <mxGeometry width="50" height="50" relative="1" as="geometry">
            <mxPoint x="230" y="340" as="sourcePoint" />
            <mxPoint x="380" y="250" as="targetPoint" />
            <Array as="points">
              <mxPoint x="230" y="370" />
              <mxPoint x="375" y="370" />
            </Array>
          </mxGeometry>
        </mxCell>
        <mxCell id="ox-4Tsm_ZWil1ZC0ssvw-77" value="" style="edgeStyle=orthogonalEdgeStyle;rounded=0;orthogonalLoop=1;jettySize=auto;html=1;dashed=1;" edge="1" parent="1" source="ox-4Tsm_ZWil1ZC0ssvw-72" target="ox-4Tsm_ZWil1ZC0ssvw-76">
          <mxGeometry relative="1" as="geometry" />
        </mxCell>
        <mxCell id="ox-4Tsm_ZWil1ZC0ssvw-72" value="&lt;b&gt;L&lt;sub&gt;G&lt;/sub&gt;&lt;/b&gt;" style="rhombus;whiteSpace=wrap;html=1;" vertex="1" parent="1">
          <mxGeometry x="352.5" y="120" width="45" height="40" as="geometry" />
        </mxCell>
        <mxCell id="ox-4Tsm_ZWil1ZC0ssvw-78" value="" style="edgeStyle=orthogonalEdgeStyle;rounded=0;orthogonalLoop=1;jettySize=auto;html=1;dashed=1;" edge="1" parent="1" source="ox-4Tsm_ZWil1ZC0ssvw-73" target="ox-4Tsm_ZWil1ZC0ssvw-76">
          <mxGeometry relative="1" as="geometry" />
        </mxCell>
        <mxCell id="ox-4Tsm_ZWil1ZC0ssvw-73" value="&lt;b&gt;L&lt;span style=&quot;font-size: 10px;&quot;&gt;&lt;sub&gt;N&lt;/sub&gt;&lt;/span&gt;&lt;/b&gt;" style="rhombus;whiteSpace=wrap;html=1;" vertex="1" parent="1">
          <mxGeometry x="662.5" y="120" width="45" height="40" as="geometry" />
        </mxCell>
        <mxCell id="ox-4Tsm_ZWil1ZC0ssvw-76" value="&lt;font size=&quot;1&quot; style=&quot;&quot;&gt;&lt;b style=&quot;font-size: 12px;&quot;&gt;Loss Function&lt;/b&gt;&lt;/font&gt;&lt;div style=&quot;font-size: 10px;&quot;&gt;&lt;div style=&quot;&quot;&gt;Combination of L&lt;sub style=&quot;&quot;&gt;G&lt;/sub&gt; and L&lt;sub style=&quot;&quot;&gt;N&lt;/sub&gt;&lt;/div&gt;&lt;/div&gt;" style="rounded=0;whiteSpace=wrap;html=1;" vertex="1" parent="1">
          <mxGeometry x="460" y="115" width="120" height="50" as="geometry" />
        </mxCell>
      </root>
    </mxGraphModel>
  </diagram>
</mxfile>
